<svg xmlns="http://www.w3.org/2000/svg" width="183" height="47" viewBox="0 0 183 47" fill="none">
<path fillRule="evenodd" clipRule="evenodd" d="M14.8614 31.9582L13.0709 44.599C12.9813 45.1331 12.8023 45.4892 12.5337 45.6673C12.2651 45.9343 11.907 46.0233 11.3699 46.0233H9.84791C9.40028 46.0233 9.1317 45.9343 8.95265 45.7563C8.77359 45.5782 8.50501 45.2222 8.32596 44.688L5.90875 39.7919C5.64017 39.2578 5.37159 38.5457 5.19254 37.4774H5.10301C5.10301 38.4566 5.10301 39.3468 5.01348 40.059L4.11822 46.0233H0L1.79053 33.3825C1.88006 32.8484 2.05911 32.4923 2.32769 32.3143C2.59627 32.0472 2.95437 31.9582 3.49153 31.9582H5.01348C5.19254 31.9582 5.46111 31.9582 5.55064 32.0472C5.64017 32.1362 5.81922 32.2252 5.99827 32.4033C6.0878 32.5813 6.17733 32.6703 6.26685 32.7594C6.35638 32.8484 6.44591 33.0264 6.53543 33.2935L8.95265 37.9225C9.31075 38.6347 9.57933 39.4359 9.84791 40.3261C9.75839 39.5249 9.75839 38.7237 9.84791 37.9225L10.7432 31.8692H14.8614V31.9582Z" fill="#000000"/>
<path fillRule="evenodd" clipRule="evenodd" d="M21.934 35.519C23.9931 35.519 25.515 35.9641 26.3208 36.7653C27.1265 37.5664 27.4846 39.0798 27.1265 41.0382C26.8579 42.9967 26.2313 44.332 25.336 45.0441C24.4407 45.7563 22.9188 46.2014 20.8597 46.2014C18.8006 46.2014 17.2786 45.7563 16.4729 44.9551C15.5776 44.0649 15.309 42.7296 15.5776 40.6821C15.8462 38.7237 16.4729 37.3884 17.3681 36.5872C18.3529 35.9641 19.8749 35.519 21.934 35.519ZM21.8445 38.4566C21.3073 38.4566 20.9492 38.6347 20.6806 38.9908C20.412 39.3468 20.3225 40.059 20.1435 41.1272C19.9644 42.1065 19.9644 42.6406 20.1435 42.9967C20.3225 43.3527 20.5911 43.4418 21.1282 43.4418C21.6654 43.4418 22.0235 43.2637 22.2026 42.9967C22.3816 42.6406 22.5607 41.9284 22.7397 40.8602C22.9188 39.881 22.9188 39.2578 22.8292 38.9908C22.6502 38.6347 22.3816 38.4566 21.8445 38.4566Z" fill="#000000"/>
<path fillRule="evenodd" clipRule="evenodd" d="M38.1383 35.519L37.243 39.4359H36.2582C35.542 39.4359 34.6467 39.5249 33.4829 39.7029L32.5876 46.0233H28.2008L29.6333 35.786H33.0353L33.2143 37.2104C34.5572 36.0531 35.9001 35.519 37.3325 35.519H38.1383Z" fill="#000000"/>
<path fillRule="evenodd" clipRule="evenodd" d="M51.0301 31.6911L48.971 46.0233H45.569L45.4794 44.421C44.1366 45.6673 42.8832 46.2904 41.6298 46.2904C39.1231 46.2904 38.0488 44.421 38.4964 40.6821C38.765 38.7237 39.2126 37.3884 40.0183 36.6762C40.7345 35.9641 41.7193 35.519 42.8832 35.519C44.1366 35.519 45.3004 35.608 46.1957 35.786C46.1957 34.9849 46.2852 34.2727 46.3747 33.6496L46.7328 31.6911H51.0301ZM45.748 38.1006H44.7632C44.1365 38.1006 43.6889 38.2786 43.5099 38.5457C43.2413 38.8127 43.0622 39.5249 42.9727 40.5041C42.7937 41.2163 42.7937 41.8394 42.8832 42.1955C42.9727 42.5516 43.1518 42.7296 43.5099 42.7296C44.047 42.7296 44.5842 42.4625 45.2109 42.0174L45.748 38.1006Z" fill="#000000"/>
<path fillRule="evenodd" clipRule="evenodd" d="M55.5959 46.0233H51.2987L52.7311 35.786H57.0284L55.5959 46.0233ZM54.6112 31.157H56.3122C57.2074 31.157 57.6551 31.6021 57.5655 32.4923L57.3865 33.5605C57.2969 34.3617 56.7598 34.7178 55.9541 34.7178H54.253C53.3578 34.7178 52.9102 34.2727 52.9997 33.3825L53.1787 32.3143C53.2683 31.5131 53.7159 31.157 54.6112 31.157Z" fill="#000000"/>
<path fillRule="evenodd" clipRule="evenodd" d="M67.503 42.7296L67.7715 45.4892C66.6077 46.0233 65.0857 46.2904 63.2057 46.2904C61.3256 46.2904 59.9827 45.8453 59.0875 44.9551C58.1922 44.0649 57.9236 42.6406 58.1922 40.6821C58.4608 38.8127 58.9979 37.4774 59.8932 36.6762C60.7885 35.8751 62.1314 35.43 64.0114 35.43C65.8915 35.43 67.503 35.697 68.7563 36.2311L68.2192 38.8127H64.6381C64.0114 38.8127 63.6533 38.9908 63.3847 39.2578C63.1162 39.5249 62.9371 40.059 62.8476 40.7712C62.7581 41.5723 62.7581 42.1065 62.9371 42.3735C63.1162 42.6406 63.4743 42.7296 64.101 42.7296C65.4439 42.9076 66.6077 42.8186 67.503 42.7296Z" fill="#000000"/>
<path fillRule="evenodd" clipRule="evenodd" d="M85.2292 42.3735L85.4083 45.6673C83.9758 46.1124 82.3644 46.2904 80.4843 46.2904C78.0671 46.2904 76.4556 45.7563 75.5603 44.599C74.6651 43.5308 74.486 41.5723 74.8441 38.8127C75.0232 37.3884 75.2918 36.2311 75.6499 35.2519C76.008 34.3617 76.4556 33.6496 76.9928 33.1154C77.5299 32.5813 78.2461 32.2252 79.0519 31.9582C79.8576 31.7801 80.8424 31.6911 82.0958 31.6911C83.8863 31.6911 85.4083 31.8692 86.7512 32.2252L86.214 35.43H81.8272C81.29 35.43 80.9319 35.519 80.6634 35.697C80.3948 35.8751 80.2157 36.2311 80.0367 36.6762C79.8576 37.2104 79.6786 38.0115 79.4995 39.1688C79.3205 40.5931 79.2309 41.4833 79.41 41.9284C79.4995 42.3735 79.9471 42.5516 80.6634 42.5516C82.5434 42.5516 84.0654 42.5516 85.2292 42.3735Z" fill="#000000"/>
<path fillRule="evenodd" clipRule="evenodd" d="M94.3609 46.0233V44.0649C93.4656 45.4002 92.1227 46.2014 90.3322 46.2904C89.3474 46.3794 88.6312 46.2014 88.094 45.6673C87.5569 45.1331 87.2883 44.51 87.1988 43.7088C87.1092 42.9076 87.1988 41.8394 87.2883 40.5931C87.3778 39.7919 87.5569 39.0798 87.8255 38.5457C88.0045 37.9225 88.2731 37.4774 88.6312 37.1213C88.9893 36.7653 89.2579 36.4982 89.616 36.2311C89.9741 35.9641 90.3322 35.8751 90.8694 35.697C91.4065 35.608 91.8541 35.519 92.3018 35.519H94.0923C94.8085 35.519 95.7038 35.608 96.8676 35.697C97.9419 35.8751 98.7477 35.9641 99.1058 36.1421L97.6734 46.0233H94.3609ZM94.5399 38.3676H93.5551C93.018 38.3676 92.6599 38.5457 92.3913 38.8127C92.1227 39.0798 91.8541 39.7029 91.7646 40.5931C91.5856 41.9284 91.496 42.6406 91.6751 42.9076C91.7646 43.0857 91.9437 43.1747 92.2123 43.0857C92.7494 43.0857 93.4656 42.5516 94.0923 41.4833L94.5399 38.3676Z" fill="#000000"/>
<path fillRule="evenodd" clipRule="evenodd" d="M109.67 35.519L108.775 39.4359H107.79C107.074 39.4359 106.178 39.5249 105.015 39.7029L104.119 46.0233H99.7325L101.165 35.786H104.567L104.746 37.2104C106.089 36.0531 107.432 35.519 108.864 35.519H109.67Z" fill="#000000"/>
<path fillRule="evenodd" clipRule="evenodd" d="M114.146 46.0233L116.116 31.8692C117.459 31.6911 119.428 31.6911 121.846 31.6911C123.905 31.6911 125.427 32.0472 126.322 32.6703C127.217 33.3825 127.575 34.5398 127.396 36.1421C127.307 37.0323 126.949 37.8335 126.501 38.3676C126.053 38.9017 125.248 39.2578 124.173 39.3468V39.5249C125.337 39.7029 125.964 40.4151 126.053 41.8394L126.59 46.1124H121.935L121.577 41.8394C121.577 41.4833 121.487 41.2163 121.398 41.1272C121.308 41.0382 121.04 40.9492 120.771 40.9492H119.249L118.533 46.1124H114.146V46.0233ZM119.697 37.7445H121.219C121.846 37.7445 122.204 37.6555 122.472 37.4774C122.741 37.2994 122.83 36.8543 123.009 36.1421C123.099 35.608 123.009 35.3409 122.92 35.1629C122.741 34.9849 122.472 34.8958 121.935 34.8958H120.145L119.697 37.7445Z" fill="#000000"/>
<path fillRule="evenodd" clipRule="evenodd" d="M138.497 42.8186L138.766 45.4002C137.423 46.0233 135.812 46.2904 133.842 46.2904C132.678 46.2904 131.693 46.2014 130.977 45.9343C130.171 45.6673 129.634 45.3112 129.187 44.8661C128.739 44.421 128.47 43.7978 128.381 43.1747C128.291 42.5516 128.202 41.7504 128.291 40.8602C128.381 39.7919 128.65 38.9017 128.918 38.1896C129.276 37.4774 129.634 36.9433 130.261 36.5872C130.798 36.2311 131.425 35.9641 132.141 35.786C132.857 35.608 133.663 35.519 134.648 35.519C136.707 35.519 138.139 35.8751 138.856 36.4982C139.661 37.1213 139.93 38.1006 139.751 39.3468C139.661 40.237 139.214 40.8602 138.587 41.2163C137.96 41.5723 136.886 41.7504 135.364 41.9284L132.768 42.1065C132.768 42.4625 132.857 42.7296 133.126 42.9076C133.305 42.9967 133.753 43.0857 134.29 43.0857C135.812 42.9967 137.244 42.9076 138.497 42.8186ZM133.126 39.97L134.29 39.881C134.827 39.881 135.095 39.7919 135.364 39.6139C135.543 39.5249 135.722 39.2578 135.722 38.9017C135.722 38.6347 135.722 38.5457 135.543 38.3676C135.454 38.2786 135.185 38.1896 134.737 38.2786C134.2 38.2786 133.842 38.3676 133.663 38.6347C133.394 38.9017 133.215 39.3468 133.126 39.97Z" fill="#000000"/>
<path fillRule="evenodd" clipRule="evenodd" d="M145.391 35.786L145.481 37.5664C146.107 36.9433 146.823 36.4092 147.629 36.0531C148.435 35.697 149.241 35.519 149.957 35.519C150.852 35.519 151.568 35.786 152.105 36.3202C152.643 36.8543 152.822 37.5664 152.643 38.4566L151.568 46.0233H147.182L148.077 39.881C148.077 39.6139 148.077 39.4359 147.987 39.2578C147.898 39.1688 147.719 39.0798 147.45 39.1688C146.913 39.2578 146.286 39.5249 145.66 39.97L144.764 46.0233H140.467L141.899 35.786H145.391Z" fill="#000000"/>
<path fillRule="evenodd" clipRule="evenodd" d="M160.252 38.3676L159.715 42.3735C159.715 42.6406 159.715 42.8186 159.805 42.9077C159.894 42.9967 160.073 42.9967 160.431 42.9967H161.685L161.953 45.7563C161.148 46.1124 159.984 46.2904 158.551 46.2904C157.477 46.2904 156.671 46.0234 156.134 45.4892C155.597 44.9551 155.328 44.243 155.507 43.3528L156.224 38.3676H154.433L154.702 35.8751L156.582 35.786L156.94 33.1154H161.237L160.879 35.786H163.386L163.028 38.3676H160.252Z" fill="#000000"/>
<path fillRule="evenodd" clipRule="evenodd" d="M170.727 46.0233V44.0649C169.832 45.4002 168.489 46.2014 166.698 46.2904C165.713 46.3794 164.997 46.2014 164.46 45.6673C163.923 45.1331 163.654 44.51 163.565 43.7088C163.475 42.8186 163.565 41.8394 163.654 40.5931C163.744 39.7919 163.923 39.0798 164.192 38.5457C164.371 37.9225 164.639 37.4774 164.997 37.1213C165.355 36.7653 165.624 36.4982 165.982 36.2311C166.34 35.9641 166.698 35.8751 167.235 35.697C167.773 35.608 168.22 35.519 168.668 35.519H170.458C171.175 35.519 172.07 35.608 173.234 35.697C174.398 35.786 175.114 35.9641 175.472 36.1421L174.039 46.0233H170.727ZM170.906 38.3676H169.921C169.384 38.3676 169.026 38.5457 168.757 38.8127C168.489 39.0798 168.22 39.7029 168.131 40.5931C167.952 41.9284 167.862 42.6406 168.041 42.9076C168.131 43.0857 168.31 43.1747 168.578 43.0857C169.115 43.0857 169.832 42.5516 170.458 41.4833L170.906 38.3676Z" fill="#000000"/>
<path fillRule="evenodd" clipRule="evenodd" d="M182.634 31.6911L181.112 42.3735C181.023 42.6406 181.112 42.8186 181.202 42.9076C181.291 42.9967 181.56 42.9967 181.918 42.9967H182.724L182.992 45.7563C182.365 46.1124 181.381 46.2904 180.038 46.2904C178.874 46.2904 177.979 46.0233 177.441 45.4892C176.815 44.9551 176.636 44.2429 176.725 43.3527L178.426 31.6911H182.634Z" fill="#000000"/>
<path fillRule="evenodd" clipRule="evenodd" d="M18.4425 31.5131C21.934 30.4448 25.4255 29.6437 28.738 28.0413C30.1704 27.3291 31.3343 26.3499 32.4086 25.1927C33.7515 23.7683 34.7363 22.6111 36.4373 21.4538C36.8849 21.1868 40.1974 20.6526 41.3612 20.4746C45.8376 19.7624 50.672 15.8456 54.4321 13.6201C57.3865 11.8397 58.7294 9.70318 62.2209 12.5518C64.28 14.2432 65.802 15.8456 68.1297 17.0918C68.3087 17.1809 68.5773 17.0028 68.3982 16.8248C66.1601 13.8871 62.9371 9.97024 59.0875 9.16906C58.1922 8.99102 57.2074 9.08004 56.5807 9.70318C53.7159 12.3738 50.2244 13.8871 46.9119 15.9346C44.1366 17.626 41.5403 18.9613 38.2278 19.4954C35.7211 19.8515 34.0201 21.5428 32.4086 23.3232C28.4694 27.8633 23.814 29.1986 18.4425 31.5131Z" fill="#000000"/>
<path fillRule="evenodd" clipRule="evenodd" d="M86.0349 8.54591C86.3035 12.5518 71.6212 12.3738 69.6516 12.9079C69.383 12.9969 69.2039 13.264 69.2935 13.442C70.0992 15.3114 72.5164 15.5785 73.7698 17.0918C74.0384 17.4479 74.5755 17.0028 74.3965 16.6467C74.1279 16.2016 73.9489 15.8456 73.5012 15.4895C73.1431 15.2224 71.1735 13.7981 71.084 13.7981C73.8593 13.8871 76.8137 13.6201 79.589 12.9969C81.6481 12.4628 86.214 11.3946 86.0349 8.54591Z" fill="#000000"/>
<path fillRule="evenodd" clipRule="evenodd" d="M62.0419 11.4836C66.6972 10.8604 70.7259 10.1483 75.2022 8.4569C79.2309 6.85454 81.9167 4.8961 85.3187 2.40354C89.7055 -0.8902 95.8829 4.62904 100.091 6.40944C104.119 8.10082 106.357 11.7506 110.118 13.7091C110.834 14.0652 111.46 12.9969 110.744 12.6408C106.895 10.5044 104.836 6.94356 100.538 5.16316C96.6886 3.47178 92.7494 0 88.2731 0C84.692 0 82.0063 4.0059 79.1414 5.51924C76.008 7.21062 72.4269 8.4569 69.0249 9.43612C66.6972 10.1483 64.1905 10.1483 61.8628 10.8604C61.5047 10.9495 61.6837 11.5726 62.0419 11.4836Z" fill="#000000"/>
<path fillRule="evenodd" clipRule="evenodd" d="M106.626 10.1483C109.759 7.5667 112.535 9.25809 115.579 7.74474C119.697 5.69728 122.741 4.27296 126.501 7.65573C128.739 9.61417 132.499 14.4212 136.17 12.6408C137.065 12.1957 137.781 11.7506 138.677 11.2165C141.183 9.70319 144.406 11.8397 146.465 13.0859C149.778 15.1334 152.285 18.2491 155.06 20.9197C157.388 23.0562 160.521 24.3915 163.296 25.8158C166.609 27.5962 169.563 29.9107 172.697 31.8692C173.055 32.0472 173.323 31.6021 172.965 31.3351C169.384 29.1096 166.43 26.0829 162.67 24.1244C158.372 21.8099 155.149 19.4064 151.747 15.9346C148.435 12.5518 143.063 7.92279 138.05 10.2373C135.991 11.2165 134.737 12.0177 132.41 10.7714C130.888 9.97025 129.545 8.36789 128.381 7.03258C126.68 5.3412 124.979 4.09492 122.562 3.73884C119.965 3.29374 117.906 4.62904 115.937 6.05336C113.072 8.18984 109.312 7.92279 106.626 10.1483Z" fill="#000000"/>
<path fillRule="evenodd" clipRule="evenodd" d="M117.19 10.7714C118.085 10.5934 118.802 9.97023 119.697 9.88121C120.055 9.88121 120.861 9.52513 120.95 10.1483C120.95 10.6824 120.771 11.1275 120.861 11.6616C120.95 13.531 123.099 14.6883 124.71 14.8663C125.427 14.9554 125.695 13.9761 124.979 13.7981C123.726 13.442 121.935 12.8189 121.935 11.1275C121.935 10.4153 122.114 9.70317 121.577 9.08003C121.219 8.72395 120.592 8.90199 120.234 9.08003C119.16 9.61415 118.354 10.4153 117.19 10.7714Z" fill="#000000"/>
<path fillRule="evenodd" clipRule="evenodd" d="M134.29 16.5577C135.185 16.7357 136.17 16.4687 137.065 16.2906C137.513 16.2016 137.96 16.0236 138.408 15.8455C139.393 15.4895 139.661 17.0918 139.751 17.715C140.288 20.2075 142.079 21.0977 143.959 22.5221C144.227 22.7001 144.675 22.344 144.406 22.077C143.153 20.9197 141.72 20.2075 141.183 18.4271C140.736 17.0918 140.825 15.8455 139.751 14.7773C139.214 14.2432 138.587 14.5102 138.05 14.7773C136.886 15.3114 135.095 15.2224 134.2 16.2016C134.111 16.3797 134.111 16.5577 134.29 16.5577Z" fill="#000000"/>
<path fillRule="evenodd" clipRule="evenodd" d="M114.325 17.0028C116.026 17.6259 117.369 19.7624 119.07 20.2075C121.935 21.0087 125.248 19.8514 127.575 21.9879C130.619 24.7476 135.364 24.7476 139.214 25.5487C139.572 25.6378 139.751 25.1036 139.393 25.0146C137.065 24.3915 134.558 24.1244 132.231 23.5903C129.545 22.9672 128.023 21.0977 125.785 19.8515C122.83 18.3381 121.308 21.1868 117.638 18.1601C116.563 17.2699 115.847 16.8248 114.415 16.6467C114.146 16.6467 114.146 16.9138 114.325 17.0028Z" fill="#000000"/>
<path fillRule="evenodd" clipRule="evenodd" d="M121.935 23.9464C123.815 24.3025 125.695 24.6585 127.396 25.7268C128.47 26.4389 129.545 27.1511 130.888 27.2401C136.259 27.6852 140.557 30.8009 145.839 32.0472C146.465 32.2252 146.734 31.246 146.107 31.068C141.899 29.8217 138.05 26.884 133.663 26.4389C130.44 26.0829 128.47 25.1036 125.695 23.8574C124.621 23.3232 123.188 23.6793 121.935 23.9464Z" fill="#000000"/>
<path fillRule="evenodd" clipRule="evenodd" d="M90.6008 12.5518C92.2123 13.353 93.7342 14.3322 95.2562 15.3114C95.9724 15.7565 101.523 17.4479 96.7781 17.804C93.8238 17.982 91.2275 16.8248 88.4522 18.1601C88.0941 18.3381 88.1836 18.7832 88.4522 18.9613C89.5265 19.6734 90.4217 19.9405 91.7646 20.2075C92.3913 20.2966 92.9285 20.4746 93.5552 20.5636C93.3761 20.5636 97.7629 21.6319 95.5248 22.344C93.5552 23.0562 91.0484 22.7001 88.9893 22.7001C84.4235 22.5221 79.9472 22.255 75.3813 22.077C72.785 21.9879 70.8155 22.166 68.8459 23.9464C68.5773 24.2134 68.6668 24.5695 68.8459 24.8366C70.1888 26.3499 71.9793 26.528 73.9489 26.4389C76.7242 26.3499 78.1566 28.8425 80.9319 29.4656C81.5586 29.6437 81.8272 28.6644 81.2005 28.4864C79.3205 27.9523 78.4252 25.4597 76.6347 25.2817C75.4708 25.1927 74.307 25.2817 73.0536 25.2817C71.4421 25.5487 71.1736 25.0146 72.1583 23.5013C73.4117 23.1452 75.0232 23.3232 76.3661 23.3232C82.5434 23.4123 88.8998 24.3025 95.0771 23.3232C97.6734 22.8781 97.942 21.0087 95.5248 20.1185C94.4504 19.6734 93.1075 19.5844 91.9437 19.4064C88.7207 18.7832 93.7342 18.6052 94.54 18.6942C96.9572 18.9613 98.8372 18.6942 100.717 17.0918C100.896 16.9138 100.896 16.5577 100.628 16.3797C99.643 15.8456 98.8372 15.5785 97.6734 15.4005C95.1666 14.9554 92.839 13.442 90.6008 12.3738C90.6008 12.4628 90.5113 12.5518 90.6008 12.5518Z" fill="#000000"/>
</svg>